<svg width="500" height="422" viewBox="0 0 500 422" fill="none" xmlns="http://www.w3.org/2000/svg">
<g clip-path="url(#clip0)">
<path d="M255.185 421.465C371.569 421.465 465.918 327.117 465.918 210.732C465.918 94.3481 371.569 0 255.185 0C138.801 0 44.4528 94.3481 44.4528 210.732C44.4528 327.117 138.801 421.465 255.185 421.465Z" fill="#DCDDFF"/>
<path d="M372.137 118.861H242.917V318.961H372.137V118.861Z" fill="white"/>
<path d="M217.019 240.993H349.51" stroke="black" stroke-miterlimit="10"/>
<path d="M217.019 254.078H349.51" stroke="black" stroke-miterlimit="10"/>
<path d="M217.019 267.164H349.51" stroke="black" stroke-miterlimit="10"/>
<path d="M217.019 280.25H349.51" stroke="black" stroke-miterlimit="10"/>
<path d="M307.527 211.005C326.197 211.005 341.332 195.87 341.332 177.201C341.332 158.531 326.197 143.396 307.527 143.396C288.858 143.396 273.723 158.531 273.723 177.201C273.723 195.87 288.858 211.005 307.527 211.005Z" fill="#F2F2F2"/>
<path opacity="0.7" d="M408.924 189.741H349.494V239.357H408.924V189.741Z" fill="#2C8598"/>
<path d="M367.604 219.939L378.031 224.154V227.418L364.406 221.105V218.674L378.031 212.377V215.642L367.604 219.939ZM366.155 272.749H363.506L373.634 246.414H376.266L366.155 272.749ZM376.449 299.84L365.439 295.525V292.361L379.664 298.657V301.089L365.439 307.402V304.204L376.449 299.84Z" fill="white"/>
<path d="M308.073 20.4463H19.6447V210.187H308.073V20.4463Z" stroke="black" stroke-miterlimit="10"/>
<path d="M19.6447 30.5332H308.073" stroke="black" stroke-miterlimit="10"/>
<path d="M127.328 47.4353H40.6361V134.127H127.328V47.4353Z" stroke="black" stroke-miterlimit="10"/>
<path d="M143.958 55.0686H276.449" stroke="black" stroke-miterlimit="10"/>
<path d="M143.958 68.1541H276.449" stroke="black" stroke-miterlimit="10"/>
<path d="M143.958 81.2397H276.449" stroke="black" stroke-miterlimit="10"/>
<path d="M143.958 94.3252H276.449" stroke="black" stroke-miterlimit="10"/>
<path opacity="0.44" d="M83.9821 70.335L60.3735 111.227H107.591L83.9821 70.335Z" fill="#092176"/>
<path d="M25.9149 28.0795C27.2699 28.0795 28.3684 26.981 28.3684 25.6259C28.3684 24.2709 27.2699 23.1724 25.9149 23.1724C24.5598 23.1724 23.4613 24.2709 23.4613 25.6259C23.4613 26.981 24.5598 28.0795 25.9149 28.0795Z" fill="#AB8DE5"/>
<path d="M34.3659 28.0795C35.721 28.0795 36.8194 26.981 36.8194 25.6259C36.8194 24.2709 35.721 23.1724 34.3659 23.1724C33.0108 23.1724 31.9124 24.2709 31.9124 25.6259C31.9124 26.981 33.0108 28.0795 34.3659 28.0795Z" fill="#73E5E2"/>
<path d="M42.8171 28.0795C44.1721 28.0795 45.2706 26.981 45.2706 25.6259C45.2706 24.2709 44.1721 23.1724 42.8171 23.1724C41.462 23.1724 40.3635 24.2709 40.3635 25.6259C40.3635 26.981 41.462 28.0795 42.8171 28.0795Z" fill="#50B89D"/>
<path d="M146.684 175.156L154.862 167.932H146.52L146.684 175.156Z" fill="#AB8DE5"/>
<path d="M190.477 140.943H149.781C143.554 140.943 138.505 145.991 138.505 152.218V157.474C138.505 163.701 143.554 168.749 149.781 168.749H190.477C196.704 168.749 201.752 163.701 201.752 157.474V152.218C201.752 145.991 196.704 140.943 190.477 140.943Z" fill="#AB8DE5"/>
<path d="M161.678 157.3C163.033 157.3 164.131 156.201 164.131 154.846C164.131 153.491 163.033 152.393 161.678 152.393C160.323 152.393 159.224 153.491 159.224 154.846C159.224 156.201 160.323 157.3 161.678 157.3Z" fill="white"/>
<path d="M170.129 157.3C171.484 157.3 172.582 156.201 172.582 154.846C172.582 153.491 171.484 152.393 170.129 152.393C168.774 152.393 167.675 153.491 167.675 154.846C167.675 156.201 168.774 157.3 170.129 157.3Z" fill="white"/>
<path d="M178.58 157.3C179.935 157.3 181.033 156.201 181.033 154.846C181.033 153.491 179.935 152.393 178.58 152.393C177.225 152.393 176.126 153.491 176.126 154.846C176.126 156.201 177.225 157.3 178.58 157.3Z" fill="white"/>
<path d="M405.669 93.3711L397.491 86.1467H405.833L405.669 93.3711Z" fill="#73E5E2"/>
<path d="M361.876 86.9646H402.572C408.8 86.9646 413.848 81.9164 413.848 75.6892V70.4331C413.848 64.2059 408.8 59.1577 402.572 59.1577L361.876 59.1577C355.649 59.1577 350.601 64.2059 350.601 70.4331V75.6892C350.601 81.9164 355.649 86.9646 361.876 86.9646Z" fill="#738CE5"/>
<path d="M390.675 75.5148C392.03 75.5148 393.129 74.4163 393.129 73.0612C393.129 71.7062 392.03 70.6077 390.675 70.6077C389.32 70.6077 388.222 71.7062 388.222 73.0612C388.222 74.4163 389.32 75.5148 390.675 75.5148Z" fill="white"/>
<path d="M382.224 75.5148C383.579 75.5148 384.678 74.4163 384.678 73.0612C384.678 71.7062 383.579 70.6077 382.224 70.6077C380.869 70.6077 379.771 71.7062 379.771 73.0612C379.771 74.4163 380.869 75.5148 382.224 75.5148Z" fill="white"/>
<path d="M373.773 75.5148C375.128 75.5148 376.227 74.4163 376.227 73.0612C376.227 71.7062 375.128 70.6077 373.773 70.6077C372.418 70.6077 371.32 71.7062 371.32 73.0612C371.32 74.4163 372.418 75.5148 373.773 75.5148Z" fill="white"/>
<path d="M401.307 25.6261C402.662 25.6261 403.761 24.5276 403.761 23.1725C403.761 21.8175 402.662 20.719 401.307 20.719C399.952 20.719 398.854 21.8175 398.854 23.1725C398.854 24.5276 399.952 25.6261 401.307 25.6261Z" fill="#F98B67"/>
<path d="M406.487 35.7128C407.842 35.7128 408.941 34.6143 408.941 33.2592C408.941 31.9042 407.842 30.8057 406.487 30.8057C405.132 30.8057 404.034 31.9042 404.034 33.2592C404.034 34.6143 405.132 35.7128 406.487 35.7128Z" fill="#F98B67"/>
<path d="M350.056 136.581C352.163 136.581 353.872 134.872 353.872 132.764C353.872 130.656 352.163 128.948 350.056 128.948C347.948 128.948 346.239 130.656 346.239 132.764C346.239 134.872 347.948 136.581 350.056 136.581Z" fill="#F98B67"/>
<path d="M372.41 149.666C374.518 149.666 376.227 147.958 376.227 145.85C376.227 143.742 374.518 142.033 372.41 142.033C370.302 142.033 368.594 143.742 368.594 145.85C368.594 147.958 370.302 149.666 372.41 149.666Z" fill="#F98B67"/>
<path d="M28.9136 154.028C31.0214 154.028 32.7302 152.32 32.7302 150.212C32.7302 148.104 31.0214 146.395 28.9136 146.395C26.8057 146.395 25.0969 148.104 25.0969 150.212C25.0969 152.32 26.8057 154.028 28.9136 154.028Z" fill="#F98B67"/>
<path d="M358.888 324.55V324.005L357.58 322.369L354.554 318.694L351.337 314.801C351.337 314.801 348.24 312.658 347.444 312.287C344.543 310.946 341.686 309.921 338.273 309.921C336.174 309.921 328.328 310.237 328.312 311.557C328.312 313.514 339.298 320.924 347.357 324.522C350.895 324.55 358.888 324.55 358.888 324.55Z" fill="#1F161E"/>
<path d="M357.225 324.55C346.043 315.946 323.214 269.018 329.07 251.625C341.534 257.977 355.208 279.879 361.658 298.373C362.005 299.576 362.284 300.797 362.492 302.032L365.109 314.027L365.742 324.566L357.225 324.55Z" fill="#FBDC8E"/>
<path d="M364.859 324.55C361.086 321.486 359.881 312.413 359.848 309.027C359.788 302.708 360.758 298.052 366.162 291.1C371.565 284.148 370.126 272.616 377.301 264.836C384.476 257.056 389.23 254.885 397.747 254.885C406.264 254.885 408.968 268.691 408.924 272.164C408.826 286.176 399.999 288.161 394.612 294.846C390.703 299.698 390.397 303.667 389.214 305.936C382.868 318.16 377.71 322.756 373.893 324.55" fill="#73E5E2"/>
<path d="M366.941 323.536C367.05 299.638 392.235 263.745 397.616 258.364" stroke="white" stroke-width="0.4" stroke-linecap="round" stroke-linejoin="round"/>
<path d="M368.299 312.675C365.513 309.638 362.978 301.028 363.359 298.793" stroke="white" stroke-width="0.4" stroke-linecap="round" stroke-linejoin="round"/>
<path d="M361.162 322.489C357.214 315.493 338.486 281.384 331.501 256.259" stroke="white" stroke-width="0.4" stroke-linecap="round" stroke-linejoin="round"/>
<path d="M373.915 324.55H385.648L375.834 361.08H349.592L339.936 324.55H373.915Z" fill="#B37361"/>
<path d="M332.15 312.298C337.87 312.691 345.067 312.953 350.143 316.415" stroke="white" stroke-width="0.4" stroke-linecap="round" stroke-linejoin="round"/>
<path d="M422.811 175.02C421.432 181.6 411.411 263.233 414.687 282.73C417.964 302.228 471.392 343.082 473.731 343.796C476.457 341.795 480.47 335.236 480.47 335.236C480.47 335.236 441.295 289.824 440.548 288.003C439.801 286.182 449.13 181.017 449.13 181.017L422.811 175.02Z" fill="#1F161E"/>
<path d="M486.614 189.877L446.643 352.907H433.182L446.823 182.833L486.614 189.877Z" fill="#738CE5"/>
<path d="M458.224 96.5332C463.742 96.5332 492.525 97.4655 497.726 107.596C502.928 117.726 498.026 164.551 494.793 166.367C493.048 167.343 492.574 166.394 492.067 168.378C491.56 170.363 486.614 189.877 486.614 189.877C483.474 189.964 437.685 183.067 422.822 175.003C422.909 172.762 423.629 166.934 423.629 166.487C421.655 167.293 419.267 167.462 418.613 166.487C412.812 157.703 421.459 111.909 427.664 102.694C430.303 98.7414 449.37 96.5605 458.224 96.5332Z" fill="#FBDC8E"/>
<path d="M477.177 167.632C478.529 167.632 490.169 175.81 489.172 179.829C489.989 176.601 492.563 166.628 492.563 166.628C491.456 166.841 478.169 167.648 477.177 167.632Z" fill="#1F161E"/>
<path d="M465.35 101.876C465.35 103.654 451.333 103.654 451.333 101.876V83.8838H465.35V101.876Z" fill="#F8CDBA"/>
<path d="M457.308 88.1421C458.399 88.1421 465.35 91.2172 465.35 92.9292V83.8838C463.617 83.8838 457.308 88.1421 457.308 88.1421Z" fill="#1F161E"/>
<path d="M455.389 89.4561C462.92 89.4561 469.025 83.351 469.025 75.8199C469.025 68.2888 462.92 62.1836 455.389 62.1836C447.858 62.1836 441.753 68.2888 441.753 75.8199C441.753 83.351 447.858 89.4561 455.389 89.4561Z" fill="#F8CDBA"/>
<path d="M450.776 55.8862C443.776 55.8862 439.414 60.2808 439.414 65.9131C439.414 70.5966 440.548 73.2464 441.884 73.9171C442.729 69.3698 444.566 67.2652 446.087 66.3601C447.27 67.2652 449.293 69.4571 451.998 70.1332C454.702 70.8092 461.741 70.6784 467.428 74.8113C469.287 73.121 471.141 70.9237 471.141 68.3339C471.141 65.744 469.996 62.4944 463.262 60.6188C458.813 59.3812 458.192 55.8862 450.776 55.8862Z" fill="#1F161E"/>
<path d="M442.647 79.871C443.966 79.871 445.035 79.3145 445.035 78.6279C445.035 77.9413 443.966 77.3848 442.647 77.3848C441.328 77.3848 440.259 77.9413 440.259 78.6279C440.259 79.3145 441.328 79.871 442.647 79.871Z" fill="#FA9E9F"/>
<path d="M457.668 79.871C458.987 79.871 460.056 79.3145 460.056 78.6279C460.056 77.9413 458.987 77.3848 457.668 77.3848C456.349 77.3848 455.28 77.9413 455.28 78.6279C455.28 79.3145 456.349 79.871 457.668 79.871Z" fill="#FA9E9F"/>
<path d="M448.481 76.0488C448.034 76.6867 445.755 79.3638 448.159 80.4434" stroke="#1F161E" stroke-miterlimit="10" stroke-linecap="round"/>
<path d="M452.974 83.5731C453.693 83.5731 454.8 82.6789 455.384 81.8774" stroke="#1F161E" stroke-miterlimit="10" stroke-linecap="round"/>
<path d="M467.995 80.5417C469.735 80.5417 471.146 79.1307 471.146 77.3902C471.146 75.6497 469.735 74.2388 467.995 74.2388C466.254 74.2388 464.843 75.6497 464.843 77.3902C464.843 79.1307 466.254 80.5417 467.995 80.5417Z" fill="#F8CDBA"/>
<path d="M477.493 123.364C477.247 126.374 476.288 141.248 476.648 143.205C472.073 144.797 430.188 164.66 422.942 166.841" stroke="#1F161E" stroke-miterlimit="10" stroke-linecap="round"/>
<path d="M428.847 118.67C427.882 122.039 424.633 137.333 426.917 144.437" stroke="#1F161E" stroke-miterlimit="10" stroke-linecap="round"/>
<path d="M439.539 159.884C441.72 161.416 462.624 170.668 491.527 167.179" stroke="#1F161E" stroke-miterlimit="10" stroke-linecap="round"/>
<path d="M437.538 144.438C438.939 144.661 434.37 141.013 431.78 142.371C429.191 143.729 425.701 149.873 426.415 151.297C426.512 151.555 426.664 151.788 426.863 151.98C427.061 152.171 427.3 152.315 427.562 152.402C427.823 152.489 428.101 152.516 428.374 152.481C428.648 152.447 428.91 152.351 429.142 152.202C429.845 151.749 435.095 144.045 437.538 144.438Z" fill="#F8CDBA"/>
<path d="M480.023 335.907C480.77 336.452 487.394 340.934 487.449 343.758C487.503 346.582 481.277 355.944 480.023 356.211C478.769 356.478 477.874 355.421 477.874 353.529C477.874 351.637 480.241 348.322 479.924 346.85C479.608 345.377 476.55 342.684 474.979 342.635" fill="#1F161E"/>
<path d="M445.368 352.907C445.368 354.205 446.12 362.351 444.615 363.109C443.11 363.866 426.503 364.313 425.75 363.561C424.998 362.809 424.54 361.222 425.205 360.769C425.87 360.317 432.293 359.03 433.165 358.43C434.038 357.831 435.243 354.614 434.801 352.907" fill="#1F161E"/>
<path d="M119.618 292.43H14.1814V345.912H119.618V292.43Z" fill="#B37361"/>
<path d="M171.563 267.366C172.021 270.092 179.796 332.417 181.055 333.448C182.315 334.478 195.689 336.763 196.834 335.051C197.063 332.325 197.38 288.859 198.088 284.971" fill="#1F161E"/>
<path d="M21.1331 254.362C15.7408 251.707 26.9835 304.343 56.5732 304.343C86.163 304.343 135.97 259.269 144.034 259.269C161.836 259.269 203.977 294.218 207.281 294.218C209.811 291.688 214.871 287.261 214.871 285.495C214.871 283.728 174.523 217.341 144.334 217.341C132.628 217.357 33.3082 260.376 21.1331 254.362Z" fill="#73E5E2"/>
<path d="M37.7845 255.256C43.7003 253.915 51.061 250.442 57.5765 246.892C39.851 252.688 25.326 256.434 21.1331 254.362C18.2761 252.955 20.0863 267.044 26.8036 280.615C25.5877 277.992 23.8539 258.44 37.7845 255.256Z" fill="#1F161E"/>
<path d="M50.8265 162.916C55.4882 163.041 79.7565 162.327 86.4083 168.662C91.3427 173.362 106.686 213.78 109.052 227.973C98.7469 233.212 24.4208 268.8 1.41749 253.152C0.91042 240.993 3.27128 192.658 18.3142 167.31C23.8156 163.646 46.3446 162.801 50.8265 162.916Z" fill="#738CE5"/>
<path d="M60.2808 151.351H46.1047V166.585C46.1047 170.402 60.2808 170.369 60.2808 166.585V151.351Z" fill="#F8CDBA"/>
<path d="M46.1047 160.549C46.1047 158.859 50.7883 154.612 53.6835 154.764C53.7543 152.883 47.0698 150.179 47.0698 150.179L46.1047 152.78V160.549Z" fill="#1F161E"/>
<path d="M75.1275 151.351C75.4458 149.877 75.6067 148.372 75.6073 146.864C75.6073 135.621 66.8236 126.505 55.979 126.505C45.1343 126.505 36.3506 135.621 36.3506 146.864C36.3512 148.372 36.5121 149.877 36.8304 151.351H75.1275Z" fill="#1F161E"/>
<path d="M69.9533 137.628C67.5488 137.262 65.1498 135.37 63.4759 134.133C53.9344 141.122 47.8223 141.215 47.1626 141.215C46.5029 141.215 43.8149 145.075 42.5772 145.512L42.4681 145.446C42.8361 147.477 43.6225 149.41 44.7774 151.121C45.9323 152.832 47.4304 154.284 49.1766 155.384C50.9228 156.485 52.8789 157.211 54.9205 157.515C56.9622 157.819 59.0449 157.696 61.0361 157.152C63.0274 156.608 64.8838 155.656 66.4874 154.356C68.091 153.056 69.4067 151.437 70.3509 149.601C71.2952 147.766 71.8472 145.754 71.9722 143.694C72.0971 141.633 71.7921 139.569 71.0765 137.633C70.7033 137.677 70.326 137.676 69.9533 137.628V137.628Z" fill="#F8CDBA"/>
<path d="M45.3469 129.04C48.5448 129.04 51.1373 126.448 51.1373 123.25C51.1373 120.052 48.5448 117.459 45.3469 117.459C42.149 117.459 39.5565 120.052 39.5565 123.25C39.5565 126.448 42.149 129.04 45.3469 129.04Z" fill="#1F161E"/>
<path d="M47.9259 140.905C47.3002 140.934 46.7099 141.204 46.2776 141.657C45.8452 142.11 45.604 142.713 45.604 143.339C45.604 143.965 45.8452 144.568 46.2776 145.021C46.7099 145.474 47.3002 145.744 47.9259 145.773" stroke="#1F161E" stroke-miterlimit="10" stroke-linecap="round"/>
<path d="M66.4856 141.215C67.1999 142.169 69.0373 143.843 66.4856 145.615" stroke="#1F161E" stroke-miterlimit="10" stroke-linecap="round"/>
<path d="M58.7488 146.891C58.7488 147.605 59.0541 149.312 60.5862 149.754" stroke="#1F161E" stroke-miterlimit="10" stroke-linecap="round"/>
<path d="M53.9998 147.06C55.2404 147.06 56.2461 146.538 56.2461 145.893C56.2461 145.249 55.2404 144.727 53.9998 144.727C52.7591 144.727 51.7534 145.249 51.7534 145.893C51.7534 146.538 52.7591 147.06 53.9998 147.06Z" fill="#FA9E9F"/>
<path d="M70.7002 147.06C71.9408 147.06 72.9466 146.538 72.9466 145.893C72.9466 145.249 71.9408 144.727 70.7002 144.727C69.4596 144.727 68.4539 145.249 68.4539 145.893C68.4539 146.538 69.4596 147.06 70.7002 147.06Z" fill="#FA9E9F"/>
<path d="M85.8959 205.046L101.048 201.147C102.504 203.623 109.592 227.945 109.592 227.945L86.2012 237.803C86.5065 233.196 87.428 212.095 85.8959 205.046Z" fill="#F8CDBA"/>
<path d="M32.7685 201.234C32.7685 203.066 31.2255 210.04 30.3149 213.317" stroke="#1F161E" stroke-miterlimit="10" stroke-linecap="round"/>
<path d="M85.8959 205.046C85.5306 202.161 83.3933 185.908 79.7566 177.353" stroke="#1F161E" stroke-miterlimit="10" stroke-linecap="round"/>
<path d="M85.8959 205.046L101.048 201.147C102.504 203.623 109.592 227.945 109.592 227.945L86.2012 237.803C86.5065 233.196 87.428 212.095 85.8959 205.046Z" fill="#F8CDBA"/>
<path d="M207.734 292.932C208.072 293.477 212.586 299.017 214.184 299.077C215.781 299.137 225.481 292.566 225.056 291.154C224.63 289.742 218.545 290.664 217.499 290.167C216.452 289.671 214.113 287.338 213.731 286.302" fill="#1F161E"/>
<path d="M183.88 334.026C183.765 334.631 183.149 341.768 184.256 342.924C185.363 344.08 196.905 346.086 197.576 344.772C198.246 343.458 193.214 339.898 192.827 338.818C192.44 337.739 192.358 334.456 192.827 333.431" fill="#1F161E"/>
<path d="M165.783 229.472H114.439L126.663 197.08H178.007L165.783 229.472Z" fill="#969696"/>
<path d="M122.999 228.251H71.6544V229.472H122.999V228.251Z" fill="#969696"/>
<path d="M30.3149 213.317C29.328 217.002 24.5354 232.814 26.4873 235.54C28.4393 238.267 77.3248 232.089 90.4049 228.016C93.7363 226.926 96.2062 224.069 97.6838 223.698C99.5811 223.377 101.53 223.768 103.157 224.797C104.783 225.825 105.972 227.418 106.495 229.27C101.271 231.8 25.8549 270.304 1.41753 253.168C-3.20058 249.858 4.90157 209.511 5.27233 207.477C9.39974 207.973 30.3149 213.317 30.3149 213.317Z" fill="#F8CDBA"/>
<path d="M86.5938 228.998C88.0659 228.649 89.3526 228.305 90.4104 227.978C93.7417 226.888 96.2116 224.031 97.6892 223.66C99.5865 223.339 101.536 223.73 103.162 224.759C104.788 225.787 105.977 227.38 106.5 229.232" stroke="#1F161E" stroke-miterlimit="10" stroke-linecap="round"/>
</g>
<defs>
<clipPath id="clip0">
<rect width="500" height="421.465" fill="white"/>
</clipPath>
</defs>
</svg>
